<svg version="1.2" xmlns="http://www.w3.org/2000/svg" viewBox="0 0 24 24" width="24" height="24">
	<title>arrow-up-tray</title>
	<style>
		.s0 { fill: #ffffff } 
	</style>
	<path fill-rule="evenodd" class="s0" d="m11.5 2.5c0.3-0.3 0.7-0.3 1 0l4.5 4.5c0.3 0.3 0.3 0.7 0 1-0.3 0.3-0.7 0.3-1 0l-3.3-3.2v11.7c0 0.4-0.3 0.8-0.7 0.8-0.4 0-0.8-0.4-0.8-0.8v-11.7l-3.2 3.2c-0.3 0.3-0.7 0.3-1 0-0.3-0.3-0.3-0.7 0-1zm-8.5 13.3c0.4-0.1 0.7 0.3 0.7 0.7v2.2c0 0.9 0.7 1.5 1.5 1.5h13.5c0.9 0 1.5-0.6 1.5-1.5v-2.2c0-0.4 0.4-0.8 0.8-0.8 0.4 0 0.7 0.4 0.7 0.8v2.2c0 1.7-1.3 3-3 3h-13.5c-1.6 0-3-1.3-3-3v-2.2c0-0.4 0.4-0.8 0.8-0.8z"/>
</svg>