<svg viewBox="0 0 24 24"  xmlns="http://www.w3.org/2000/svg" fill="#111827">
<path fill-rule="evenodd" clip-rule="evenodd" d="M8.85353 3.81684C9.00421 2.91274 9.78644 2.25009 10.703 2.25009H13.297C14.2136 2.25009 14.9958 2.91274 15.1465 3.81684L15.36 5.09789C15.3789 5.21138 15.463 5.34321 15.6275 5.43427C15.7099 5.4799 15.7914 5.52704 15.8719 5.57563C16.0328 5.67281 16.1891 5.67984 16.297 5.63942L17.5139 5.18354C18.3722 4.86198 19.3372 5.20809 19.7955 6.00186L21.0924 8.2483C21.5507 9.04208 21.368 10.0508 20.6603 10.6334L19.656 11.4602C19.5671 11.5334 19.4952 11.6718 19.4987 11.8587C19.4996 11.9057 19.5 11.9529 19.5 12.0001C19.5 12.0473 19.4996 12.0944 19.4987 12.1414C19.4952 12.3284 19.5671 12.4668 19.656 12.54L20.6603 13.3668C21.368 13.9493 21.5507 14.9581 21.0924 15.7519L19.7955 17.9983C19.3372 18.7921 18.3722 19.1382 17.5139 18.8166L16.297 18.3608C16.1891 18.3203 16.0328 18.3274 15.8719 18.4245C15.7914 18.4731 15.7099 18.5203 15.6275 18.5659C15.463 18.657 15.3789 18.7888 15.36 18.9023L15.1465 20.1833C14.9958 21.0874 14.2136 21.7501 13.297 21.7501H10.703C9.78644 21.7501 9.00421 21.0874 8.85353 20.1833L8.64002 18.9023C8.62111 18.7888 8.53703 18.657 8.37251 18.5659C8.29008 18.5203 8.20861 18.4731 8.12812 18.4245C7.96719 18.3274 7.81089 18.3203 7.703 18.3608L6.48613 18.8166C5.62781 19.1382 4.66282 18.7921 4.20454 17.9983L2.90756 15.7519C2.44927 14.9581 2.63203 13.9493 3.33966 13.3668L3.81634 13.9458L3.33966 13.3668L4.34401 12.54C4.43291 12.4668 4.50477 12.3284 4.50131 12.1414C4.50044 12.0944 4.5 12.0473 4.5 12.0001C4.5 11.9529 4.50044 11.9058 4.50131 11.8587C4.50477 11.6718 4.43291 11.5334 4.34401 11.4602L3.33966 10.6334C2.63203 10.0509 2.44927 9.04209 2.90756 8.24832L4.20454 6.00188C4.66283 5.2081 5.62781 4.862 6.48613 5.18355L7.70298 5.63943C7.81087 5.67985 7.96717 5.67282 8.12811 5.57564C8.2086 5.52704 8.29008 5.47991 8.37251 5.43427C8.53703 5.34321 8.62111 5.21138 8.64002 5.09789L8.85353 3.81684ZM10.703 3.75009C10.5197 3.75009 10.3633 3.88262 10.3331 4.06344L10.1196 5.34449C10.0138 5.97909 9.59798 6.4704 9.09896 6.74663C9.03304 6.78312 8.96787 6.82082 8.90348 6.8597C8.41435 7.15506 7.77999 7.27008 7.17675 7.04409L5.95989 6.58821C5.78823 6.5239 5.59523 6.59312 5.50358 6.75188L4.20659 8.99832C4.11494 9.15707 4.15149 9.35882 4.29301 9.47533L5.29737 10.3022C5.79348 10.7106 6.01162 11.3158 6.00105 11.8865C6.00035 11.9243 6 11.9621 6 12.0001C6 12.038 6.00035 12.0759 6.00105 12.1137C6.01162 12.6844 5.79348 13.2896 5.29737 13.698L4.29302 14.5249L3.96067 14.1212L4.29302 14.5249C4.15149 14.6414 4.11494 14.8431 4.20659 15.0019L5.50358 17.2483C5.59523 17.4071 5.78823 17.4763 5.95989 17.412L7.17676 16.9561C7.78 16.7301 8.41436 16.8451 8.90349 17.1405C8.96787 17.1794 9.03304 17.2171 9.09896 17.2536C9.59798 17.5298 10.0138 18.0211 10.1196 18.6557L10.3331 19.9367C10.3633 20.1176 10.5197 20.2501 10.703 20.2501H13.297C13.4803 20.2501 13.6367 20.1176 13.6669 19.9367L13.8804 18.6557C13.9862 18.0211 14.402 17.5298 14.901 17.2536C14.967 17.2171 15.0321 17.1794 15.0965 17.1405C15.5856 16.8451 16.22 16.7301 16.8233 16.9561L18.0401 17.412C18.2118 17.4763 18.4048 17.4071 18.4964 17.2483L19.7934 15.0019C19.8851 14.8431 19.8485 14.6414 19.707 14.5248L18.7026 13.698C18.2065 13.2896 17.9884 12.6844 17.999 12.1137C17.9997 12.0759 18 12.038 18 12.0001C18 11.9621 17.9996 11.9243 17.9989 11.8865C17.9884 11.3158 18.2065 10.7106 18.7026 10.3021L19.707 9.47532C19.8485 9.35881 19.8851 9.15706 19.7934 8.9983L18.4964 6.75187C18.4048 6.59311 18.2118 6.52389 18.0401 6.5882L16.8232 7.04408C16.22 7.27007 15.5856 7.15505 15.0965 6.85969C15.0321 6.82081 14.967 6.78312 14.901 6.74663C14.402 6.4704 13.9862 5.97909 13.8804 5.34449L13.6669 4.06344C13.6367 3.88262 13.4803 3.75009 13.297 3.75009H10.703ZM11.9998 9.75001C10.7571 9.75001 9.74977 10.7574 9.74977 12C9.74977 13.2427 10.7571 14.25 11.9998 14.25C13.2424 14.25 14.2498 13.2427 14.2498 12C14.2498 10.7574 13.2424 9.75001 11.9998 9.75001ZM8.24977 12C8.24977 9.92894 9.9287 8.25001 11.9998 8.25001C14.0708 8.25001 15.7498 9.92894 15.7498 12C15.7498 14.0711 14.0708 15.75 11.9998 15.75C9.9287 15.75 8.24977 14.0711 8.24977 12Z" />
</svg>
