<svg version="1.2" xmlns="http://www.w3.org/2000/svg" viewBox="0 0 24 24" width="24" height="24">
	<title>cog-6-tooth-outline</title>
	<style>
		.s0 { fill: #b3b3b3 } 
	</style>
	<path fill-rule="evenodd" class="s0" d="m8.9 3.8c0.1-0.9 0.9-1.5 1.8-1.5h2.6c0.9 0 1.7 0.6 1.8 1.5l0.3 1.3q0 0.2 0.2 0.3 0.2 0.1 0.3 0.2 0.2 0.1 0.4 0l1.2-0.4c0.9-0.3 1.8 0 2.3 0.8l1.3 2.2c0.5 0.8 0.3 1.9-0.4 2.4l-1 0.9q-0.2 0.1-0.2 0.4 0 0 0 0.1 0 0.1 0 0.1 0 0.3 0.2 0.4l1 0.9c0.7 0.5 0.9 1.6 0.4 2.4l-1.3 2.2c-0.5 0.8-1.4 1.1-2.3 0.8l-1.2-0.4q-0.2-0.1-0.4 0-0.1 0.1-0.3 0.2-0.2 0.1-0.2 0.3l-0.3 1.3c-0.1 0.9-0.9 1.6-1.8 1.6h-2.6c-0.9 0-1.7-0.7-1.8-1.6l-0.3-1.3q0-0.2-0.2-0.3-0.2-0.1-0.3-0.2-0.2-0.1-0.4 0l-1.2 0.4c-0.9 0.3-1.8 0-2.3-0.8l-1.3-2.2c-0.5-0.8-0.3-1.9 0.4-2.4l1-0.9q0.2-0.1 0.2-0.4 0 0 0-0.1 0-0.1 0-0.1 0-0.3-0.2-0.4l-1-0.9c-0.7-0.5-0.9-1.6-0.4-2.4l1.3-2.2c0.5-0.8 1.4-1.1 2.3-0.8l1.2 0.4q0.2 0.1 0.4 0 0.1-0.1 0.3-0.2 0.2-0.1 0.2-0.3zm1.9-0.1c-0.2 0-0.4 0.2-0.4 0.3l-0.2 1.3c-0.1 0.7-0.5 1.2-1 1.4q-0.1 0.1-0.2 0.1c-0.5 0.3-1.1 0.5-1.7 0.2l-1.3-0.4c-0.1-0.1-0.3 0-0.4 0.1l-1.3 2.3c-0.1 0.1-0.1 0.3 0.1 0.5l1 0.8c0.5 0.4 0.7 1 0.7 1.6q0 0 0 0.1 0 0 0 0.1c0 0.6-0.2 1.2-0.7 1.6l-1 0.8c-0.2 0.1-0.2 0.3-0.1 0.5l1.3 2.2c0.1 0.2 0.3 0.3 0.4 0.2l1.3-0.5c0.6-0.2 1.2-0.1 1.7 0.2q0.1 0.1 0.2 0.1c0.5 0.3 0.9 0.8 1 1.4l0.2 1.3c0 0.2 0.2 0.3 0.4 0.3h2.6c0.2 0 0.3-0.1 0.4-0.3l0.2-1.3c0.1-0.6 0.5-1.1 1-1.4q0.1 0 0.2-0.1c0.5-0.3 1.1-0.4 1.7-0.2l1.2 0.5c0.2 0.1 0.4 0 0.5-0.2l1.3-2.2c0.1-0.2 0-0.4-0.1-0.5l-1-0.8c-0.5-0.4-0.7-1-0.7-1.6q0-0.1 0-0.1 0-0.1 0-0.1c0-0.6 0.2-1.2 0.7-1.6l1-0.8c0.1-0.2 0.2-0.4 0.1-0.5l-1.3-2.3c-0.1-0.1-0.3-0.2-0.5-0.1l-1.2 0.4c-0.6 0.3-1.2 0.1-1.7-0.2q-0.1 0-0.2-0.1c-0.5-0.2-0.9-0.7-1-1.4l-0.2-1.3c-0.1-0.1-0.2-0.3-0.4-0.3zm-2.5 8.3c0-2.1 1.7-3.8 3.8-3.8 2.1 0 3.7 1.7 3.7 3.8 0 2.1-1.6 3.7-3.7 3.7-2.1 0-3.8-1.6-3.8-3.7zm3.8-2.3c-1.3 0-2.3 1-2.3 2.3 0 1.2 1 2.2 2.3 2.2 1.2 0 2.2-1 2.2-2.2 0-1.3-1-2.3-2.2-2.3z"/>
</svg>