<svg version="1.2" xmlns="http://www.w3.org/2000/svg" viewBox="0 0 24 24" width="24" height="24">
	<title>gift-outline</title>
	<style>
		.s0 { fill: #b3b3b3 } 
	</style>
	<path fill-rule="evenodd" class="s0" d="m14.6 1.5c1.9 0 3.4 1.5 3.4 3.4 0 0.7-0.2 1.3-0.6 1.9h4c1 0 1.9 0.8 1.9 1.8v1.5c0 0.9-0.7 1.7-1.5 1.9v7.5c0 1.2-1.1 2.3-2.3 2.3h-14.3c-1.2 0-2.2-1.1-2.2-2.3v-7.5c-0.9-0.2-1.5-1-1.5-1.9v-1.5c0-1 0.8-1.8 1.9-1.8h3.2c-0.4-0.6-0.6-1.2-0.6-1.9 0-1.9 1.5-3.4 3.4-3.4 1 0 2 0.5 2.6 1.3 0.6-0.8 1.6-1.3 2.6-1.3zm-5.2 1.5c-1.1 0-1.9 0.8-1.9 1.9 0 1 0.8 1.9 1.9 1.9h1.9v-1.9c0-1.1-0.9-1.9-1.9-1.9zm3.4 5.3v2.2h8.6c0.2 0 0.4-0.2 0.4-0.4v-1.5c0-0.2-0.2-0.3-0.4-0.3zm7.5 3.7h-7.5v8.3l6.7-0.1c0.4 0 0.8-0.3 0.8-0.7zm-9 8.2v-8.2h-6.8v7.5c0 0.4 0.4 0.7 0.8 0.7zm0-9.7v-2.3h-7.9c-0.2 0-0.4 0.2-0.4 0.4v1.5c0 0.2 0.2 0.4 0.4 0.4zm1.5-3.8h1.9c1 0 1.9-0.8 1.9-1.8 0-1.1-0.9-1.9-1.9-1.9-1.1 0-1.9 0.8-1.9 1.9z"/>
</svg>