<svg version="1.2" xmlns="http://www.w3.org/2000/svg" viewBox="0 0 24 24" width="24" height="24">
	<title>gift-fill</title>
	<style>
		.s0 { fill: #ffffff } 
	</style>
	<path class="s0" d="m9.4 3c-1.1 0-1.9 0.8-1.9 1.9 0 1 0.8 1.9 1.9 1.9h1.8v4.5h-7.8c-1.1 0-1.9-0.9-1.9-1.9v-0.8c0-1 0.8-1.8 1.9-1.8h3.2c-0.4-0.6-0.6-1.2-0.6-1.9 0-1.9 1.5-3.4 3.4-3.4 1 0 2 0.5 2.6 1.3 0.6-0.8 1.6-1.3 2.6-1.3 1.9 0 3.4 1.5 3.4 3.4 0 0.7-0.2 1.3-0.6 1.9h4c1 0 1.8 0.8 1.8 1.8v0.8c0 1-0.8 1.9-1.8 1.9h-8.7v-4.5h1.9c1.1 0 1.9-0.9 1.9-1.9 0-1.1-0.8-1.9-1.9-1.9-1 0-1.9 0.8-1.9 1.9v1.9h-1.5v-1.9c0-1.1-0.8-1.9-1.8-1.9z"/>
	<path class="s0" d="m11.3 12.8l-8.3-0.1v6.8c0 1.2 1 2.2 2.3 2.2h6z"/>
	<path class="s0" d="m12.8 12.8l-0.1 8.9h6.8c1.2 0 2.2-1 2.2-2.2v-6.8z"/>
</svg>