<svg viewBox="0 0 24 24"  xmlns="http://www.w3.org/2000/svg" fill="#111827">
<path fill-rule="evenodd" clip-rule="evenodd" d="M1.5 3C1.5 2.58579 1.83579 2.25 2.25 2.25H21.75C22.1642 2.25 22.5 2.58579 22.5 3C22.5 3.41421 22.1642 3.75 21.75 3.75H21V14.25C21 15.9069 19.6569 17.25 18 17.25H16.7906L17.9615 20.7628C18.0925 21.1558 17.8801 21.5805 17.4872 21.7115C17.0942 21.8425 16.6695 21.6301 16.5385 21.2372L16.2094 20.25H7.79057L7.46151 21.2372C7.33053 21.6301 6.90579 21.8425 6.51283 21.7115C6.11987 21.5805 5.9075 21.1558 6.03849 20.7628L7.20943 17.25H6C4.34315 17.25 3 15.9069 3 14.25V3.75H2.25C1.83579 3.75 1.5 3.41421 1.5 3ZM4.5 3.75V14.25C4.5 15.0784 5.17157 15.75 6 15.75H18C18.8284 15.75 19.5 15.0784 19.5 14.25V3.75H4.5ZM8.79057 17.25L8.29057 18.75H15.7094L15.2094 17.25H8.79057ZM17.1492 7.22984C17.3566 7.58839 17.2341 8.04718 16.8755 8.25459C15.4414 9.08419 14.207 10.2216 13.2629 11.5764C13.136 11.7585 12.9349 11.8751 12.7138 11.8947C12.4927 11.9143 12.2742 11.8349 12.1173 11.6779L10.5 10.0607L8.03033 12.5303C7.73744 12.8232 7.26256 12.8232 6.96967 12.5303C6.67678 12.2374 6.67678 11.7626 6.96967 11.4697L9.96967 8.46967C10.2626 8.17678 10.7374 8.17678 11.0303 8.46967L12.5667 10.0061C13.5517 8.78363 14.7577 7.7468 16.1245 6.95618C16.483 6.74878 16.9418 6.8713 17.1492 7.22984Z" />
</svg>
