<svg version="1.2" xmlns="http://www.w3.org/2000/svg" viewBox="0 0 24 24" width="24" height="24">
	<title>presentation-chart-line-fill</title>
	<style>
		.s0 { fill: #ffffff } 
	</style>
	<path fill-rule="evenodd" class="s0" d="m21.8 2.3c0.4 0 0.7 0.3 0.7 0.7 0 0.4-0.3 0.8-0.8 0.8h-0.7v10.4c0 1.7-1.3 3-3 3h-1.2l1.2 3.6c0.1 0.4-0.1 0.8-0.5 0.9-0.4 0.1-0.8-0.1-1-0.5l-0.3-1h-8.4l-0.3 1c-0.2 0.4-0.6 0.6-1 0.5-0.4-0.1-0.6-0.5-0.5-0.9l1.2-3.6h-1.2c-1.7 0-3-1.3-3-3v-10.4h-0.8c-0.4 0-0.7-0.4-0.7-0.8 0-0.4 0.3-0.7 0.7-0.7zm-13.4 16.4l7.4 0.1-0.5-1.5h-6.4zm8.6-10.5c0.3-0.3 0.5-0.7 0.2-1.1-0.2-0.3-0.6-0.5-1-0.2-1.3 0.7-2.5 1.8-3.5 3l-1.6-1.5c-0.3-0.3-0.7-0.3-1 0l-3 3c-0.3 0.3-0.3 0.7 0 1 0.3 0.3 0.7 0.3 1 0l2.5-2.4 1.6 1.6q0.3 0.2 0.6 0.2 0.4 0 0.6-0.3c0.9-1.4 2.1-2.5 3.6-3.3z"/>
</svg>