<svg version="1.2" xmlns="http://www.w3.org/2000/svg" viewBox="0 0 24 24" width="24" height="24">
	<title>presentation-chart-line-outline</title>
	<style>
		.s0 { fill: #b3b3b3 } 
	</style>
	<path fill-rule="evenodd" class="s0" d="m1.5 3c0-0.4 0.3-0.8 0.8-0.8l19.4 0.1c0.5 0 0.8 0.3 0.8 0.7 0 0.4-0.3 0.8-0.7 0.8h-0.8v10.4c0 1.7-1.3 3-3 3h-1.2l1.2 3.6c0.1 0.4-0.1 0.8-0.5 0.9-0.4 0.1-0.8-0.1-1-0.5l-0.3-1h-8.4l-0.3 1c-0.2 0.4-0.6 0.6-1 0.5-0.4-0.1-0.6-0.5-0.5-0.9l1.2-3.6h-1.2c-1.7 0-3-1.3-3-3v-10.5h-0.7c-0.5 0-0.8-0.3-0.8-0.7zm3 0.7v10.5c0 0.9 0.7 1.5 1.5 1.5h12c0.8 0 1.5-0.6 1.5-1.5v-10.5zm4.3 13.5l-0.5 1.5h7.4l-0.5-1.5zm8.4-10c0.2 0.4 0.1 0.8-0.3 1.1-1.4 0.8-2.7 1.9-3.6 3.3q-0.2 0.3-0.6 0.3-0.3 0-0.6-0.2l-1.6-1.6-2.5 2.4c-0.2 0.3-0.7 0.3-1 0-0.3-0.3-0.3-0.7 0-1l3-3c0.3-0.3 0.8-0.3 1 0l1.6 1.5c1-1.2 2.2-2.3 3.5-3 0.4-0.3 0.9-0.1 1.1 0.2z"/>
</svg>