<svg version="1.2" xmlns="http://www.w3.org/2000/svg" viewBox="0 0 24 24" width="24" height="24">
	<title>shopping-cart-outline</title>
	<style>
		.s0 { fill: #b3b3b3 } 
	</style>
	<path fill-rule="evenodd" class="s0" d="m1.5 3c0-0.4 0.3-0.8 0.8-0.8l1.3 0.1c0.9 0 1.6 0.5 1.8 1.3l0.3 0.9q0.5 0 1 0c5.3 0 10.3 0.7 15.1 1.9q0.3 0.1 0.5 0.4 0.2 0.2 0.1 0.6-1.3 3.7-3 7.2c-0.1 0.2-0.4 0.4-0.7 0.4h-11.2c-1 0-1.8 0.6-2.1 1.5h14.8c0.5 0 0.8 0.3 0.8 0.7 0 0.5-0.3 0.8-0.8 0.8h-15.7c-0.4 0-0.8-0.3-0.8-0.8 0-1.7 1.2-3.2 2.9-3.6l-2.2-8.1-0.4-1.5c0-0.1-0.2-0.3-0.4-0.3h-1.4c-0.4 0-0.7-0.3-0.7-0.7zm4.6 3l2 7.5h10.1q1.4-2.8 2.5-5.9c-4.5-1-9.2-1.6-13.9-1.6q-0.4 0-0.7 0zm-2.3 14.2c0-0.8 0.6-1.5 1.5-1.5 0.8 0 1.5 0.7 1.5 1.5 0 0.9-0.7 1.5-1.5 1.5-0.9 0-1.5-0.6-1.5-1.5zm12.7 0c0-0.8 0.7-1.5 1.5-1.5 0.8 0 1.5 0.7 1.5 1.5 0 0.9-0.7 1.5-1.5 1.5-0.8 0-1.5-0.6-1.5-1.5z"/>
</svg>