<svg version="1.2" xmlns="http://www.w3.org/2000/svg" viewBox="0 0 24 24" width="24" height="24">
	<title>shopping-cart-fill</title>
	<style>
		.s0 { fill: #ffffff } 
	</style>
	<path class="s0" d="m2.3 2.3c-0.5 0-0.8 0.3-0.8 0.7 0 0.4 0.3 0.8 0.8 0.8h1.3c0.2 0 0.4 0.1 0.4 0.2l2.6 9.6c-1.7 0.4-2.9 1.9-2.9 3.7 0 0.4 0.4 0.7 0.8 0.7h15.8c0.4 0 0.7-0.3 0.7-0.7 0-0.5-0.3-0.8-0.8-0.8h-14.8c0.3-0.9 1.1-1.5 2.1-1.5h11.2c0.3 0 0.6-0.2 0.7-0.4q1.7-3.5 3-7.2 0.1-0.4-0.1-0.6-0.2-0.3-0.5-0.4c-4.8-1.2-9.8-1.9-15.1-1.9q-0.5 0-1 0l-0.3-0.9c-0.2-0.8-0.9-1.3-1.8-1.3z"/>
	<path class="s0" d="m3.8 20.3c0-0.9 0.6-1.6 1.5-1.6 0.8 0 1.5 0.7 1.5 1.5 0 0.9-0.7 1.5-1.5 1.5-0.9 0-1.5-0.6-1.5-1.5z"/>
	<path class="s0" d="m16.5 20.3c0-0.9 0.7-1.6 1.5-1.6 0.8 0 1.5 0.7 1.5 1.5 0 0.9-0.7 1.5-1.5 1.5-0.8 0-1.5-0.6-1.5-1.5z"/>
</svg>