<svg version="1.2" xmlns="http://www.w3.org/2000/svg" viewBox="0 0 24 24" width="24" height="24">
	<title>shopping-bag-outline</title>
	<style>
		.s0 { fill: #b3b3b3 } 
	</style>
	<path fill-rule="evenodd" class="s0" d="m18.5 6.8c0.9 0 1.8 0.7 1.9 1.6l1.2 12c0.1 1.1-0.7 2.1-1.8 2.1h-15.6c-1.1 0-1.9-1-1.8-2.1l1.2-12c0.1-0.9 1-1.6 1.9-1.6h2v-0.8c0-2.5 2-4.5 4.5-4.5 2.5 0 4.5 2 4.5 4.5v0.8zm-6.5-3.8c-1.6 0-3 1.3-3 3v0.8l6-0.1v-0.7c0-1.7-1.3-3-3-3zm3 5.3h-6v1.4c0.2 0.2 0.4 0.5 0.4 0.8 0 0.6-0.5 1.1-1.1 1.1-0.7 0-1.2-0.5-1.2-1.1 0-0.3 0.2-0.6 0.4-0.8v-1.4h-2c-0.2 0-0.3 0.1-0.3 0.3l-1.3 12c0 0.2 0.1 0.4 0.4 0.4h15.5c0.2 0 0.4-0.2 0.3-0.4l-1.2-12c0-0.2-0.2-0.3-0.4-0.3h-2v1.4c0.2 0.2 0.4 0.5 0.4 0.8 0 0.6-0.5 1.1-1.1 1.1-0.7 0-1.2-0.5-1.2-1.1 0-0.3 0.2-0.6 0.4-0.8z"/>
</svg>