<svg version="1.2" xmlns="http://www.w3.org/2000/svg" viewBox="0 0 24 24" width="24" height="24">
	<title>shopping-bag-fill</title>
	<style>
		.s0 { fill: #ffffff } 
	</style>
	<path fill-rule="evenodd" class="s0" d="m12 1.5c2.5 0 4.5 2 4.5 4.5v0.8l2-0.1c0.9 0 1.8 0.8 1.9 1.7l1.2 12c0.1 1.1-0.7 2.1-1.8 2.1h-15.6c-1.1 0-1.9-1-1.8-2.1l1.2-12c0.1-0.9 1-1.6 1.9-1.6h2v-0.8c0-2.5 2-4.5 4.5-4.5zm0 1.5c-1.7 0-3 1.3-3 3v0.8h6v-0.8c0-1.7-1.3-3-3-3zm-3 7.5c0-0.4-0.3-0.7-0.8-0.7-0.4 0-0.7 0.3-0.7 0.7v0.8c0 2.4 2 4.5 4.5 4.5 2.5 0 4.5-2.1 4.5-4.5v-0.8c0-0.4-0.3-0.7-0.8-0.7-0.4 0-0.7 0.3-0.7 0.7v0.8c0 1.6-1.3 3-3 3-1.7 0-3-1.4-3-3z"/>
</svg>