<svg version="1.2" xmlns="http://www.w3.org/2000/svg" viewBox="0 0 24 24" width="24" height="24">
	<title>squares-2x2-fill</title>
	<style>
		.s0 { fill: #ffffff } 
	</style>
	<path fill-rule="evenodd" class="s0" d="m3 8.3c0 1.6 1.3 2.9 3 2.9h2.3c1.6 0 3-1.3 3-3v-2.2c0-1.7-1.4-3-3-3h-2.3c-1.7 0-3 1.3-3 3zm9.8 0c-0.1 1.7 1.3 3 2.9 3h2.3c1.7 0 3-1.3 3-3v-2.3c0-1.6-1.3-3-3-3h-2.3c-1.6 0-3 1.4-3 3zm-9.7 9.8c0 1.7 1.3 3 3 3h2.2c1.7 0 3-1.3 3-3v-2.3c0-1.6-1.3-3-3-3h-2.2c-1.7 0-3 1.4-3 3zm9.7 0c0 1.7 1.4 3 3 3h2.3c1.7 0 3-1.3 3-3v-2.2c0-1.7-1.3-3-3-3h-2.3c-1.6 0-3 1.3-3 3z"/>
</svg>