<svg version="1.2" xmlns="http://www.w3.org/2000/svg" viewBox="0 0 24 24" width="24" height="24">
	<title>squares-2x2-outline</title>
	<style>
		.s0 { fill: #b3b3b3 } 
	</style>
	<path fill-rule="evenodd" class="s0" d="m3 6c0-1.7 1.3-3 3-3h2.3c1.6 0 3 1.3 3 3v2.3c0 1.6-1.4 3-3 3h-2.3c-1.7 0-3-1.4-3-3zm3-1.5c-0.8 0-1.5 0.6-1.5 1.5v2.2c0 0.8 0.7 1.5 1.5 1.5h2.3c0.8 0 1.5-0.7 1.5-1.5v-2.3c0-0.8-0.7-1.5-1.5-1.5zm6.7 1.5c0-1.6 1.3-3 3-3h2.3c1.6 0 3 1.4 3 3v2.3c0 1.7-1.4 3-3 3h-2.3c-1.7 0-3-1.3-3-3zm3-1.5c-0.8 0-1.5 0.7-1.5 1.5v2.3c0 0.8 0.7 1.5 1.5 1.5h2.3c0.8 0 1.5-0.7 1.5-1.5v-2.3c0-0.8-0.7-1.5-1.5-1.5zm-12.8 11.3c0-1.7 1.3-3.1 3-3.1h2.3c1.6 0 3 1.4 3 3v2.3c0 1.7-1.4 3-3 3h-2.3c-1.7 0-3-1.3-3-3zm3-1.5c-0.8 0-1.5 0.7-1.5 1.5v2.2c0 0.9 0.7 1.5 1.5 1.5h2.3c0.8 0 1.5-0.6 1.5-1.5v-2.2c0-0.8-0.7-1.5-1.5-1.5zm6.7 1.5c0-1.7 1.3-3 3-3h2.3c1.6 0 3 1.3 3 3v2.2c0 1.7-1.4 3-3 3h-2.3c-1.7 0-3-1.3-3-3zm3-1.5c-0.8 0-1.5 0.7-1.5 1.5v2.3c0 0.8 0.7 1.5 1.5 1.5h2.3c0.8 0 1.5-0.7 1.5-1.5v-2.3c0-0.8-0.7-1.5-1.5-1.5z"/>
</svg>