<svg version="1.2" xmlns="http://www.w3.org/2000/svg" viewBox="0 0 24 24" width="24" height="24">
	<title>users-outline</title>
	<style>
		.s0 { fill: #b3b3b3 } 
	</style>
	<path fill-rule="evenodd" class="s0" d="m4.5 6.4c0-2.3 1.8-4.2 4.1-4.2 2.3 0 4.2 1.9 4.2 4.2 0 2.3-1.9 4.1-4.2 4.1-2.3 0-4.1-1.8-4.1-4.1zm4.1-2.7c-1.4 0-2.6 1.2-2.6 2.7 0 1.4 1.2 2.6 2.6 2.6 1.5 0 2.7-1.2 2.7-2.6 0-1.5-1.2-2.7-2.7-2.7zm5.7 4.9c0-1.8 1.5-3.4 3.3-3.4 1.9 0 3.4 1.6 3.4 3.4 0 1.9-1.5 3.4-3.4 3.4-1.8 0-3.3-1.5-3.3-3.4zm3.3-1.9c-1 0-1.8 0.9-1.8 1.9 0 1.1 0.8 1.9 1.8 1.9 1.1 0 1.9-0.8 1.9-1.9 0-1-0.8-1.9-1.9-1.9zm-2.4 13.3c-1.9 1.1-4.2 1.7-6.6 1.7-2.4 0-4.8-0.6-6.7-1.8-0.3-0.2-0.4-0.4-0.4-0.7q0 0 0-0.1c0-3.9 3.2-7.1 7.1-7.1 2.3 0 4.4 1.1 5.7 2.8 0.9-0.8 2-1.3 3.3-1.3 2.7 0 4.9 2.2 4.9 4.9q0 0.1 0 0.2c0 0.3-0.2 0.5-0.4 0.6-1.4 0.7-2.9 1-4.5 1q-1.2 0-2.4-0.2zm-12.2-1.2c1.7 0.9 3.6 1.4 5.6 1.4 2.1 0 4-0.5 5.6-1.4q0-1.3-0.6-2.4c-1-1.7-2.9-2.9-5-2.9-3 0-5.4 2.3-5.6 5.3zm12.7-0.3q0.9 0.2 1.9 0.2c1.2 0 2.4-0.2 3.4-0.6-0.2-1.8-1.6-3.1-3.4-3.1-1 0-1.9 0.4-2.5 1.1q0.5 1.2 0.6 2.4z"/>
</svg>