<svg version="1.2" xmlns="http://www.w3.org/2000/svg" viewBox="0 0 24 24" width="24" height="24">
	<title>users-fill</title>
	<style>
		.s0 { fill: #ffffff } 
	</style>
	<path class="s0" d="m4.5 6.4c0-2.3 1.8-4.2 4.1-4.2 2.3 0 4.2 1.9 4.2 4.2 0 2.3-1.9 4.1-4.2 4.1-2.3 0-4.1-1.8-4.1-4.1z"/>
	<path class="s0" d="m14.3 8.6c-0.1-1.8 1.5-3.3 3.3-3.3 1.9 0 3.4 1.5 3.4 3.3 0 1.9-1.5 3.4-3.4 3.4-1.8 0-3.4-1.5-3.4-3.4z"/>
	<path class="s0" d="m1.5 19.1c0-3.9 3.2-7.1 7.1-7.1 4 0 7.2 3.2 7.2 7.1q-0.1 0.1-0.1 0.1c0 0.3-0.1 0.5-0.3 0.7-2 1.2-4.3 1.8-6.8 1.8-2.4 0-4.8-0.6-6.7-1.8-0.3-0.2-0.4-0.4-0.4-0.7q0 0 0-0.1z"/>
	<path class="s0" d="m17.2 19.1q0 0.1 0 0.2 0 0.5-0.2 0.9 0.3 0 0.6 0c1.6 0 3.1-0.3 4.5-1 0.2-0.1 0.4-0.3 0.4-0.6q0-0.1 0-0.2c0-2.7-2.2-4.9-4.9-4.9q-1.1 0-2.1 0.5c1.1 1.4 1.7 3.2 1.7 5.1z"/>
</svg>